<svg xmlns="http://www.w3.org/2000/svg" viewBox="0 0 44 44" width="32" height="32">
  <path d="M13 2C8 2 3 5 3 11C3 14 3 17 3 22C3 27 3 30 3 33C3 39 8 42 13 42C16 42 19 42 22 42C25 42 28 42 31 42C37 42 41 39 41 33C41 30 41 27 41 22C41 17 41 14 41 11C41 5 37 2 31 2C28 2 25 2 22 2C19 2 16 2 13 2Z" 
        fill="url(#faviconGradient)" 
        transform="rotate(-8 22 22)"
        style="filter: drop-shadow(0 2px 6px rgba(255, 69, 0, 0.2))"
  />
  <rect x="9" y="9" width="26" height="26" rx="7" ry="7" 
        fill="white" 
        fill-opacity="0.92"
        transform="rotate(-8 22 22)"
  />
  <defs>
    <linearGradient id="faviconGradient" x1="0%" y1="0%" x2="100%" y2="100%">
      <stop offset="0%" stop-color="#ff4500" />
      <stop offset="45%" stop-color="#ff6b35" />
      <stop offset="75%" stop-color="#f97316" />
      <stop offset="100%" stop-color="#ea580c" />
    </linearGradient>
  </defs>
</svg>